<svg width="13" height="13" viewBox="0 0 13 13" fill="none" xmlns="http://www.w3.org/2000/svg">
<path d="M11.5938 7.64355C12.0039 8.16309 12.25 8.81934 12.2227 9.50293C12.2227 11.1982 10.8555 12.5654 9.16016 12.5654C8.47656 12.5654 7.82031 12.3467 7.30078 11.9365C6.91797 12.0186 6.50781 12.0732 6.09766 12.0732C3.00781 12.0732 0.492188 9.55762 0.492188 6.44043C0.492188 6.05762 0.546875 5.64746 0.628906 5.26465C0.21875 4.74512 0 4.08887 0 3.37793C0 1.70996 1.36719 0.31543 3.0625 0.31543C3.74609 0.31543 4.40234 0.561523 4.92188 0.97168C5.30469 0.889648 5.71484 0.834961 6.125 0.834961C9.21484 0.834961 11.7305 3.35059 11.7305 6.44043C11.7305 6.85059 11.6758 7.26074 11.5938 7.64355ZM6.28906 10.1592C7.79297 10.1592 9.35156 9.39355 9.35156 7.78027C9.35156 6.38574 7.98438 5.9209 6.86328 5.6748C5.55078 5.34668 4.97656 5.29199 4.97656 4.77246C4.97656 4.33496 5.41406 4.14355 6.125 4.14355C7.38281 4.14355 7.41016 5.07324 8.17578 5.07324C8.69531 5.07324 8.99609 4.66309 8.99609 4.19824C8.99609 3.26855 7.46484 2.66699 5.96094 2.66699C4.59375 2.66699 2.98047 3.26855 2.98047 4.90918C2.98047 6.68652 4.51172 6.85059 6.20703 7.28809C6.91797 7.45215 7.35547 7.53418 7.35547 8.05371C7.35547 8.46387 6.89062 8.76465 6.20703 8.76465C4.73047 8.76465 4.64844 7.53418 3.80078 7.53418C3.22656 7.53418 2.98047 7.94434 2.98047 8.38184C2.98047 9.36621 4.48438 10.1592 6.28906 10.1592Z" fill="#949DA6"/>
</svg>
